<?xml version="1.0" encoding="UTF-8" standalone="no"?>
<!DOCTYPE svg PUBLIC "-//W3C//DTD SVG 1.1//EN"
 "http://www.w3.org/Graphics/SVG/1.1/DTD/svg11.dtd">
<!-- Generated by graphviz version 2.40.1 (20161225.0304)
 -->
<!-- Title: dependencies Pages: 1 -->
<svg width="1780pt" height="284pt"
 viewBox="0.00 0.00 1780.00 284.00" xmlns="http://www.w3.org/2000/svg" xmlns:xlink="http://www.w3.org/1999/xlink">
<g id="graph0" class="graph" transform="scale(1 1) rotate(0) translate(4 280)">
<title>dependencies</title>
<polygon fill="#ffffff" stroke="transparent" points="-4,4 -4,-280 1776,-280 1776,4 -4,4"/>
<text text-anchor="start" x="865.0091" y="-42.4" font-family="sans-serif" font-weight="bold" font-size="14.00" fill="#000000">Legend</text>
<polygon fill="#ffffb3" stroke="transparent" points="652,-10 652,-30 672,-30 672,-10 652,-10"/>
<text text-anchor="start" x="675.629" y="-15.4" font-family="sans-serif" font-size="14.00" fill="#000000"> &#160;Declarations</text>
<polygon fill="#8dd3c7" stroke="transparent" points="765,-10 765,-30 785,-30 785,-10 765,-10"/>
<text text-anchor="start" x="788.7251" y="-15.4" font-family="sans-serif" font-size="14.00" fill="#000000"> &#160;Module</text>
<polygon fill="#80b1d3" stroke="transparent" points="851,-10 851,-30 871,-30 871,-10 851,-10"/>
<text text-anchor="start" x="874.7812" y="-15.4" font-family="sans-serif" font-size="14.00" fill="#000000"> &#160;Bootstrap</text>
<polygon fill="#fdb462" stroke="transparent" points="948,-10 948,-30 968,-30 968,-10 948,-10"/>
<text text-anchor="start" x="971.6732" y="-15.4" font-family="sans-serif" font-size="14.00" fill="#000000"> &#160;Providers</text>
<polygon fill="#fb8072" stroke="transparent" points="1044,-10 1044,-30 1064,-30 1064,-10 1044,-10"/>
<text text-anchor="start" x="1067.7258" y="-15.4" font-family="sans-serif" font-size="14.00" fill="#000000"> &#160;Exports</text>
<g id="clust1" class="cluster">
<title>cluster_AppModule</title>
<polygon fill="none" stroke="#000000" stroke-dasharray="1,5" points="8,-70 8,-268 1764,-268 1764,-70 8,-70"/>
</g>
<g id="clust2" class="cluster">
<title>cluster_AppModule_declarations</title>
<polygon fill="none" stroke="#000000" points="168,-78 168,-130 1756,-130 1756,-78 168,-78"/>
</g>
<g id="clust13" class="cluster">
<title>cluster_AppModule_imports</title>
<polygon fill="none" stroke="#000000" points="16,-78 16,-130 160,-130 160,-78 16,-78"/>
</g>
<g id="clust15" class="cluster">
<title>cluster_AppModule_bootstrap</title>
<polygon fill="none" stroke="#000000" points="846,-208 846,-260 970,-260 970,-208 846,-208"/>
</g>
<!-- AppComponent -->
<g id="node1" class="node">
<title>AppComponent</title>
<polygon fill="#ffffb3" stroke="#000000" points="1747.9399,-122 1642.0601,-122 1642.0601,-86 1747.9399,-86 1747.9399,-122"/>
<text text-anchor="middle" x="1695" y="-99.8" font-family="Times,serif" font-size="14.00" fill="#000000">AppComponent</text>
</g>
<!-- AppModule -->
<g id="node11" class="node">
<title>AppModule</title>
<polygon fill="#8dd3c7" stroke="#000000" points="949.6571,-187 946.6571,-191 925.6571,-191 922.6571,-187 866.3429,-187 866.3429,-151 949.6571,-151 949.6571,-187"/>
<text text-anchor="middle" x="908" y="-164.8" font-family="Times,serif" font-size="14.00" fill="#000000">AppModule</text>
</g>
<!-- AppComponent&#45;&gt;AppModule -->
<g id="edge1" class="edge">
<title>AppComponent&#45;&gt;AppModule</title>
<path fill="none" stroke="#000000" d="M1695,-122.2479C1695,-145.0179 1695,-181 1695,-181 1695,-181 959.7569,-181 959.7569,-181"/>
<polygon fill="#000000" stroke="#000000" points="959.7569,-177.5001 949.7569,-181 959.7568,-184.5001 959.7569,-177.5001"/>
</g>
<!-- PatientsComponent -->
<g id="node2" class="node">
<title>PatientsComponent</title>
<polygon fill="#ffffb3" stroke="#000000" points="1623.6611,-122 1498.3389,-122 1498.3389,-86 1623.6611,-86 1623.6611,-122"/>
<text text-anchor="middle" x="1561" y="-99.8" font-family="Times,serif" font-size="14.00" fill="#000000">PatientsComponent</text>
</g>
<!-- PatientsComponent&#45;&gt;AppModule -->
<g id="edge2" class="edge">
<title>PatientsComponent&#45;&gt;AppModule</title>
<path fill="none" stroke="#000000" d="M1561,-122.2843C1561,-143.3211 1561,-175 1561,-175 1561,-175 959.8414,-175 959.8414,-175"/>
<polygon fill="#000000" stroke="#000000" points="959.8415,-171.5001 949.8414,-175 959.8414,-178.5001 959.8415,-171.5001"/>
</g>
<!-- AppointmentsComponent -->
<g id="node3" class="node">
<title>AppointmentsComponent</title>
<polygon fill="#ffffb3" stroke="#000000" points="1480.161,-122 1319.839,-122 1319.839,-86 1480.161,-86 1480.161,-122"/>
<text text-anchor="middle" x="1400" y="-99.8" font-family="Times,serif" font-size="14.00" fill="#000000">AppointmentsComponent</text>
</g>
<!-- AppointmentsComponent&#45;&gt;AppModule -->
<g id="edge3" class="edge">
<title>AppointmentsComponent&#45;&gt;AppModule</title>
<path fill="none" stroke="#000000" d="M1400,-122.1061C1400,-141.3391 1400,-169 1400,-169 1400,-169 959.9476,-169 959.9476,-169"/>
<polygon fill="#000000" stroke="#000000" points="959.9477,-165.5001 949.9476,-169 959.9476,-172.5001 959.9477,-165.5001"/>
</g>
<!-- DoctorsComponent -->
<g id="node4" class="node">
<title>DoctorsComponent</title>
<polygon fill="#ffffb3" stroke="#000000" points="1301.6499,-122 1176.3501,-122 1176.3501,-86 1301.6499,-86 1301.6499,-122"/>
<text text-anchor="middle" x="1239" y="-99.8" font-family="Times,serif" font-size="14.00" fill="#000000">DoctorsComponent</text>
</g>
<!-- DoctorsComponent&#45;&gt;AppModule -->
<g id="edge4" class="edge">
<title>DoctorsComponent&#45;&gt;AppModule</title>
<path fill="none" stroke="#000000" d="M1239,-122.0225C1239,-139.3734 1239,-163 1239,-163 1239,-163 959.9214,-163 959.9214,-163"/>
<polygon fill="#000000" stroke="#000000" points="959.9214,-159.5001 949.9214,-163 959.9213,-166.5001 959.9214,-159.5001"/>
</g>
<!-- PageNotFoundComponent -->
<g id="node5" class="node">
<title>PageNotFoundComponent</title>
<polygon fill="#ffffb3" stroke="#000000" points="1158.8243,-122 993.1757,-122 993.1757,-86 1158.8243,-86 1158.8243,-122"/>
<text text-anchor="middle" x="1076" y="-99.8" font-family="Times,serif" font-size="14.00" fill="#000000">PageNotFoundComponent</text>
</g>
<!-- PageNotFoundComponent&#45;&gt;AppModule -->
<g id="edge5" class="edge">
<title>PageNotFoundComponent&#45;&gt;AppModule</title>
<path fill="none" stroke="#000000" d="M1076,-122.2396C1076,-137.5706 1076,-157 1076,-157 1076,-157 959.9601,-157 959.9601,-157"/>
<polygon fill="#000000" stroke="#000000" points="959.9602,-153.5001 949.9601,-157 959.9601,-160.5001 959.9602,-153.5001"/>
</g>
<!-- HospitalsComponent -->
<g id="node6" class="node">
<title>HospitalsComponent</title>
<polygon fill="#ffffb3" stroke="#000000" points="975.2148,-122 840.7852,-122 840.7852,-86 975.2148,-86 975.2148,-122"/>
<text text-anchor="middle" x="908" y="-99.8" font-family="Times,serif" font-size="14.00" fill="#000000">HospitalsComponent</text>
</g>
<!-- HospitalsComponent&#45;&gt;AppModule -->
<g id="edge6" class="edge">
<title>HospitalsComponent&#45;&gt;AppModule</title>
<path fill="none" stroke="#000000" d="M908,-122.1061C908,-122.1061 908,-140.991 908,-140.991"/>
<polygon fill="#000000" stroke="#000000" points="904.5001,-140.9909 908,-150.991 911.5001,-140.991 904.5001,-140.9909"/>
</g>
<!-- LoginComponent -->
<g id="node7" class="node">
<title>LoginComponent</title>
<polygon fill="#ffffb3" stroke="#000000" points="823.2758,-122 708.7242,-122 708.7242,-86 823.2758,-86 823.2758,-122"/>
<text text-anchor="middle" x="766" y="-99.8" font-family="Times,serif" font-size="14.00" fill="#000000">LoginComponent</text>
</g>
<!-- LoginComponent&#45;&gt;AppModule -->
<g id="edge7" class="edge">
<title>LoginComponent&#45;&gt;AppModule</title>
<path fill="none" stroke="#000000" d="M766,-122.2396C766,-137.5706 766,-157 766,-157 766,-157 856.1633,-157 856.1633,-157"/>
<polygon fill="#000000" stroke="#000000" points="856.1634,-160.5001 866.1633,-157 856.1633,-153.5001 856.1634,-160.5001"/>
</g>
<!-- ScheduleComponent -->
<g id="node8" class="node">
<title>ScheduleComponent</title>
<polygon fill="#ffffb3" stroke="#000000" points="690.1499,-122 557.8501,-122 557.8501,-86 690.1499,-86 690.1499,-122"/>
<text text-anchor="middle" x="624" y="-99.8" font-family="Times,serif" font-size="14.00" fill="#000000">ScheduleComponent</text>
</g>
<!-- ScheduleComponent&#45;&gt;AppModule -->
<g id="edge8" class="edge">
<title>ScheduleComponent&#45;&gt;AppModule</title>
<path fill="none" stroke="#000000" d="M624,-122.0225C624,-139.3734 624,-163 624,-163 624,-163 856.0948,-163 856.0948,-163"/>
<polygon fill="#000000" stroke="#000000" points="856.0949,-166.5001 866.0948,-163 856.0948,-159.5001 856.0949,-166.5001"/>
</g>
<!-- HospitalDetailsComponent -->
<g id="node9" class="node">
<title>HospitalDetailsComponent</title>
<polygon fill="#ffffb3" stroke="#000000" points="539.4227,-122 370.5773,-122 370.5773,-86 539.4227,-86 539.4227,-122"/>
<text text-anchor="middle" x="455" y="-99.8" font-family="Times,serif" font-size="14.00" fill="#000000">HospitalDetailsComponent</text>
</g>
<!-- HospitalDetailsComponent&#45;&gt;AppModule -->
<g id="edge9" class="edge">
<title>HospitalDetailsComponent&#45;&gt;AppModule</title>
<path fill="none" stroke="#000000" d="M455,-122.1061C455,-141.3391 455,-169 455,-169 455,-169 856.1948,-169 856.1948,-169"/>
<polygon fill="#000000" stroke="#000000" points="856.1949,-172.5001 866.1948,-169 856.1948,-165.5001 856.1949,-172.5001"/>
</g>
<!-- BookingConfirmComponent -->
<g id="node10" class="node">
<title>BookingConfirmComponent</title>
<polygon fill="#ffffb3" stroke="#000000" points="352.4986,-122 175.5014,-122 175.5014,-86 352.4986,-86 352.4986,-122"/>
<text text-anchor="middle" x="264" y="-99.8" font-family="Times,serif" font-size="14.00" fill="#000000">BookingConfirmComponent</text>
</g>
<!-- BookingConfirmComponent&#45;&gt;AppModule -->
<g id="edge10" class="edge">
<title>BookingConfirmComponent&#45;&gt;AppModule</title>
<path fill="none" stroke="#000000" d="M264,-122.2843C264,-143.3211 264,-175 264,-175 264,-175 856.2416,-175 856.2416,-175"/>
<polygon fill="#000000" stroke="#000000" points="856.2416,-178.5001 866.2416,-175 856.2415,-171.5001 856.2416,-178.5001"/>
</g>
<!-- AppComponent  -->
<g id="node13" class="node">
<title>AppComponent </title>
<polygon fill="#80b1d3" stroke="#000000" points="962.439,-252 853.561,-252 853.561,-216 962.439,-216 962.439,-252"/>
<text text-anchor="middle" x="908" y="-229.8" font-family="Times,serif" font-size="14.00" fill="#000000">AppComponent </text>
</g>
<!-- AppModule&#45;&gt;AppComponent  -->
<g id="edge12" class="edge">
<title>AppModule&#45;&gt;AppComponent </title>
<path fill="none" stroke="#000000" stroke-dasharray="1,5" d="M908,-187.1061C908,-187.1061 908,-205.991 908,-205.991"/>
<polygon fill="#000000" stroke="#000000" points="904.5001,-205.9909 908,-215.991 911.5001,-205.991 904.5001,-205.9909"/>
</g>
<!-- AppRoutingModule -->
<g id="node12" class="node">
<title>AppRoutingModule</title>
<polygon fill="#8dd3c7" stroke="#000000" points="152.2744,-122 149.2744,-126 128.2744,-126 125.2744,-122 23.7256,-122 23.7256,-86 152.2744,-86 152.2744,-122"/>
<text text-anchor="middle" x="88" y="-99.8" font-family="Times,serif" font-size="14.00" fill="#000000">AppRoutingModule</text>
</g>
<!-- AppRoutingModule&#45;&gt;AppModule -->
<g id="edge11" class="edge">
<title>AppRoutingModule&#45;&gt;AppModule</title>
<path fill="none" stroke="#000000" d="M88,-122.2479C88,-145.0179 88,-181 88,-181 88,-181 856.2087,-181 856.2087,-181"/>
<polygon fill="#000000" stroke="#000000" points="856.2088,-184.5001 866.2087,-181 856.2087,-177.5001 856.2088,-184.5001"/>
</g>
</g>
</svg>
