<?xml version="1.0" encoding="UTF-8" standalone="no"?>
<!DOCTYPE svg PUBLIC "-//W3C//DTD SVG 1.1//EN"
 "http://www.w3.org/Graphics/SVG/1.1/DTD/svg11.dtd">
<!-- Generated by graphviz version 2.40.1 (20161225.0304)
 -->
<!-- Title: dependencies Pages: 1 -->
<svg width="1247pt" height="284pt"
 viewBox="0.00 0.00 1247.00 284.00" xmlns="http://www.w3.org/2000/svg" xmlns:xlink="http://www.w3.org/1999/xlink">
<g id="graph0" class="graph" transform="scale(1 1) rotate(0) translate(4 280)">
<title>dependencies</title>
<polygon fill="#ffffff" stroke="transparent" points="-4,4 -4,-280 1243,-280 1243,4 -4,4"/>
<text text-anchor="start" x="598.5091" y="-42.4" font-family="sans-serif" font-weight="bold" font-size="14.00" fill="#000000">Legend</text>
<polygon fill="#ffffb3" stroke="transparent" points="385.5,-10 385.5,-30 405.5,-30 405.5,-10 385.5,-10"/>
<text text-anchor="start" x="409.129" y="-15.4" font-family="sans-serif" font-size="14.00" fill="#000000"> &#160;Declarations</text>
<polygon fill="#8dd3c7" stroke="transparent" points="498.5,-10 498.5,-30 518.5,-30 518.5,-10 498.5,-10"/>
<text text-anchor="start" x="522.2251" y="-15.4" font-family="sans-serif" font-size="14.00" fill="#000000"> &#160;Module</text>
<polygon fill="#80b1d3" stroke="transparent" points="584.5,-10 584.5,-30 604.5,-30 604.5,-10 584.5,-10"/>
<text text-anchor="start" x="608.2812" y="-15.4" font-family="sans-serif" font-size="14.00" fill="#000000"> &#160;Bootstrap</text>
<polygon fill="#fdb462" stroke="transparent" points="681.5,-10 681.5,-30 701.5,-30 701.5,-10 681.5,-10"/>
<text text-anchor="start" x="705.1732" y="-15.4" font-family="sans-serif" font-size="14.00" fill="#000000"> &#160;Providers</text>
<polygon fill="#fb8072" stroke="transparent" points="777.5,-10 777.5,-30 797.5,-30 797.5,-10 777.5,-10"/>
<text text-anchor="start" x="801.2258" y="-15.4" font-family="sans-serif" font-size="14.00" fill="#000000"> &#160;Exports</text>
<g id="clust1" class="cluster">
<title>cluster_AppModule</title>
<polygon fill="none" stroke="#000000" stroke-dasharray="1,5" points="8,-70 8,-268 1231,-268 1231,-70 8,-70"/>
</g>
<g id="clust2" class="cluster">
<title>cluster_AppModule_declarations</title>
<polygon fill="none" stroke="#000000" points="168,-78 168,-130 1223,-130 1223,-78 168,-78"/>
</g>
<g id="clust10" class="cluster">
<title>cluster_AppModule_imports</title>
<polygon fill="none" stroke="#000000" points="16,-78 16,-130 160,-130 160,-78 16,-78"/>
</g>
<g id="clust12" class="cluster">
<title>cluster_AppModule_bootstrap</title>
<polygon fill="none" stroke="#000000" points="562,-208 562,-260 686,-260 686,-208 562,-208"/>
</g>
<!-- AppComponent -->
<g id="node1" class="node">
<title>AppComponent</title>
<polygon fill="#ffffb3" stroke="#000000" points="1214.9399,-122 1109.0601,-122 1109.0601,-86 1214.9399,-86 1214.9399,-122"/>
<text text-anchor="middle" x="1162" y="-99.8" font-family="Times,serif" font-size="14.00" fill="#000000">AppComponent</text>
</g>
<!-- AppModule -->
<g id="node8" class="node">
<title>AppModule</title>
<polygon fill="#8dd3c7" stroke="#000000" points="665.6571,-187 662.6571,-191 641.6571,-191 638.6571,-187 582.3429,-187 582.3429,-151 665.6571,-151 665.6571,-187"/>
<text text-anchor="middle" x="624" y="-164.8" font-family="Times,serif" font-size="14.00" fill="#000000">AppModule</text>
</g>
<!-- AppComponent&#45;&gt;AppModule -->
<g id="edge1" class="edge">
<title>AppComponent&#45;&gt;AppModule</title>
<path fill="none" stroke="#000000" d="M1162,-122.2921C1162,-144.2057 1162,-178 1162,-178 1162,-178 675.7683,-178 675.7683,-178"/>
<polygon fill="#000000" stroke="#000000" points="675.7683,-174.5001 665.7683,-178 675.7682,-181.5001 675.7683,-174.5001"/>
</g>
<!-- PatientsComponent -->
<g id="node2" class="node">
<title>PatientsComponent</title>
<polygon fill="#ffffb3" stroke="#000000" points="1090.6611,-122 965.3389,-122 965.3389,-86 1090.6611,-86 1090.6611,-122"/>
<text text-anchor="middle" x="1028" y="-99.8" font-family="Times,serif" font-size="14.00" fill="#000000">PatientsComponent</text>
</g>
<!-- PatientsComponent&#45;&gt;AppModule -->
<g id="edge2" class="edge">
<title>PatientsComponent&#45;&gt;AppModule</title>
<path fill="none" stroke="#000000" d="M1028,-122.1061C1028,-141.3391 1028,-169 1028,-169 1028,-169 675.7134,-169 675.7134,-169"/>
<polygon fill="#000000" stroke="#000000" points="675.7135,-165.5001 665.7134,-169 675.7134,-172.5001 675.7135,-165.5001"/>
</g>
<!-- AppointmentsComponent -->
<g id="node3" class="node">
<title>AppointmentsComponent</title>
<polygon fill="#ffffb3" stroke="#000000" points="947.161,-122 786.839,-122 786.839,-86 947.161,-86 947.161,-122"/>
<text text-anchor="middle" x="867" y="-99.8" font-family="Times,serif" font-size="14.00" fill="#000000">AppointmentsComponent</text>
</g>
<!-- AppointmentsComponent&#45;&gt;AppModule -->
<g id="edge3" class="edge">
<title>AppointmentsComponent&#45;&gt;AppModule</title>
<path fill="none" stroke="#000000" d="M867,-122.027C867,-138.3976 867,-160 867,-160 867,-160 675.7732,-160 675.7732,-160"/>
<polygon fill="#000000" stroke="#000000" points="675.7732,-156.5001 665.7732,-160 675.7732,-163.5001 675.7732,-156.5001"/>
</g>
<!-- DoctorsComponent -->
<g id="node4" class="node">
<title>DoctorsComponent</title>
<polygon fill="#ffffb3" stroke="#000000" points="768.6499,-122 643.3501,-122 643.3501,-86 768.6499,-86 768.6499,-122"/>
<text text-anchor="middle" x="706" y="-99.8" font-family="Times,serif" font-size="14.00" fill="#000000">DoctorsComponent</text>
</g>
<!-- DoctorsComponent&#45;&gt;AppModule -->
<g id="edge4" class="edge">
<title>DoctorsComponent&#45;&gt;AppModule</title>
<path fill="none" stroke="#000000" d="M654.5018,-122.1061C654.5018,-122.1061 654.5018,-140.991 654.5018,-140.991"/>
<polygon fill="#000000" stroke="#000000" points="651.0018,-140.9909 654.5018,-150.991 658.0018,-140.991 651.0018,-140.9909"/>
</g>
<!-- PageNotFoundComponent -->
<g id="node5" class="node">
<title>PageNotFoundComponent</title>
<polygon fill="#ffffb3" stroke="#000000" points="625.8243,-122 460.1757,-122 460.1757,-86 625.8243,-86 625.8243,-122"/>
<text text-anchor="middle" x="543" y="-99.8" font-family="Times,serif" font-size="14.00" fill="#000000">PageNotFoundComponent</text>
</g>
<!-- PageNotFoundComponent&#45;&gt;AppModule -->
<g id="edge5" class="edge">
<title>PageNotFoundComponent&#45;&gt;AppModule</title>
<path fill="none" stroke="#000000" d="M603.9169,-122.1061C603.9169,-122.1061 603.9169,-140.991 603.9169,-140.991"/>
<polygon fill="#000000" stroke="#000000" points="600.417,-140.9909 603.9169,-150.991 607.417,-140.991 600.417,-140.9909"/>
</g>
<!-- HospitalsComponent -->
<g id="node6" class="node">
<title>HospitalsComponent</title>
<polygon fill="#ffffb3" stroke="#000000" points="442.2148,-122 307.7852,-122 307.7852,-86 442.2148,-86 442.2148,-122"/>
<text text-anchor="middle" x="375" y="-99.8" font-family="Times,serif" font-size="14.00" fill="#000000">HospitalsComponent</text>
</g>
<!-- HospitalsComponent&#45;&gt;AppModule -->
<g id="edge6" class="edge">
<title>HospitalsComponent&#45;&gt;AppModule</title>
<path fill="none" stroke="#000000" d="M375,-122.027C375,-138.3976 375,-160 375,-160 375,-160 572.323,-160 572.323,-160"/>
<polygon fill="#000000" stroke="#000000" points="572.323,-163.5001 582.323,-160 572.323,-156.5001 572.323,-163.5001"/>
</g>
<!-- LoginComponent -->
<g id="node7" class="node">
<title>LoginComponent</title>
<polygon fill="#ffffb3" stroke="#000000" points="290.2758,-122 175.7242,-122 175.7242,-86 290.2758,-86 290.2758,-122"/>
<text text-anchor="middle" x="233" y="-99.8" font-family="Times,serif" font-size="14.00" fill="#000000">LoginComponent</text>
</g>
<!-- LoginComponent&#45;&gt;AppModule -->
<g id="edge7" class="edge">
<title>LoginComponent&#45;&gt;AppModule</title>
<path fill="none" stroke="#000000" d="M233,-122.1061C233,-141.3391 233,-169 233,-169 233,-169 572.1562,-169 572.1562,-169"/>
<polygon fill="#000000" stroke="#000000" points="572.1562,-172.5001 582.1562,-169 572.1561,-165.5001 572.1562,-172.5001"/>
</g>
<!-- AppComponent  -->
<g id="node10" class="node">
<title>AppComponent </title>
<polygon fill="#80b1d3" stroke="#000000" points="678.439,-252 569.561,-252 569.561,-216 678.439,-216 678.439,-252"/>
<text text-anchor="middle" x="624" y="-229.8" font-family="Times,serif" font-size="14.00" fill="#000000">AppComponent </text>
</g>
<!-- AppModule&#45;&gt;AppComponent  -->
<g id="edge9" class="edge">
<title>AppModule&#45;&gt;AppComponent </title>
<path fill="none" stroke="#000000" stroke-dasharray="1,5" d="M624,-187.1061C624,-187.1061 624,-205.991 624,-205.991"/>
<polygon fill="#000000" stroke="#000000" points="620.5001,-205.9909 624,-215.991 627.5001,-205.991 620.5001,-205.9909"/>
</g>
<!-- AppRoutingModule -->
<g id="node9" class="node">
<title>AppRoutingModule</title>
<polygon fill="#8dd3c7" stroke="#000000" points="152.2744,-122 149.2744,-126 128.2744,-126 125.2744,-122 23.7256,-122 23.7256,-86 152.2744,-86 152.2744,-122"/>
<text text-anchor="middle" x="88" y="-99.8" font-family="Times,serif" font-size="14.00" fill="#000000">AppRoutingModule</text>
</g>
<!-- AppRoutingModule&#45;&gt;AppModule -->
<g id="edge8" class="edge">
<title>AppRoutingModule&#45;&gt;AppModule</title>
<path fill="none" stroke="#000000" d="M88,-122.2921C88,-144.2057 88,-178 88,-178 88,-178 571.941,-178 571.941,-178"/>
<polygon fill="#000000" stroke="#000000" points="571.941,-181.5001 581.941,-178 571.9409,-174.5001 571.941,-181.5001"/>
</g>
</g>
</svg>
